<svg id="Layer_1" data-name="Layer 1" xmlns="http://www.w3.org/2000/svg" viewBox="0 0 1080 1080"><defs><style>.cls-1{fill:#fff;}.cls-2{fill:#ff7d3b;}.cls-3{fill:#f5425c;}.cls-4{fill:#444;}</style></defs><rect class="cls-1" x="102.08" y="139.86" width="534.64" height="752.47"/><path class="cls-1" d="M369.4,699.08H904a0,0,0,0,1,0,0v79.48A117.71,117.71,0,0,1,786.34,896.27H369.4a0,0,0,0,1,0,0V699.08A0,0,0,0,1,369.4,699.08Z"/><g id="list"><path class="cls-2" d="M395.75,801.81l-.5-.84c-3.11-5.19-6.22-10.77-9.25-16.56l-1.32-2.51H576.73a10,10,0,1,1,0,19.91Z"/><path class="cls-2" d="M576.73,800.09h-180q-4.85-8.1-9.21-16.47H576.73a8.24,8.24,0,1,1,0,16.47Z"/><path class="cls-2" d="M360.13,717.28,359.8,716c-1.42-5.54-2.68-11.12-3.77-16.58l-.4-2h221.1a10,10,0,1,1,0,19.92Z"/><path class="cls-2" d="M576.73,715.56H361.46q-2.08-8.16-3.74-16.48h219a8.24,8.24,0,1,1,0,16.48Z"/><path class="cls-2" d="M349.73,632.74l0-1.74c.07-5.43.29-11,.66-16.58l.1-1.6H576.73a10,10,0,1,1,0,19.92Z"/><path class="cls-2" d="M576.73,631H351.47q.11-8.29.65-16.48H576.73a8.24,8.24,0,1,1,0,16.48Z"/><path class="cls-2" d="M361.69,548.2l.63-2.19c1.57-5.48,3.35-11.06,5.27-16.58l.4-1.15H576.73a10,10,0,0,1,0,19.92Z"/><path class="cls-2" d="M576.73,546.48H364q2.4-8.34,5.24-16.49H576.73a8.25,8.25,0,1,1,0,16.49Z"/><path class="cls-2" d="M399.25,463.68,401,461c3.57-5.56,7.42-11.14,11.43-16.58l.52-.7H576.73a10,10,0,0,1,0,19.93Z"/><path class="cls-2" d="M576.73,462H402.39q5.42-8.43,11.37-16.49h163a8.25,8.25,0,1,1,0,16.49Z"/><path class="cls-2" d="M476.44,379.14l4.16-3.1c7.92-5.88,16.21-11.46,24.67-16.58l.41-.25h71.05a10,10,0,0,1,0,19.93Z"/><path class="cls-2" d="M576.73,377.42h-95.1q11.85-8.81,24.52-16.49h70.58a8.25,8.25,0,1,1,0,16.49Z"/><path class="cls-2" d="M672.49,958.35A322,322,0,0,1,502.9,910.26c-8.15-5-16.3-10.6-24.25-16.56l-4.11-3.09H703a139.93,139.93,0,0,1-68-120V315l1.52-.17c5.34-.61,10.92-1.09,16.58-1.42,6.39-.38,12.91-.57,19.38-.57,178,0,322.75,144.8,322.75,322.77S850.46,958.35,672.49,958.35ZM654.93,770.6a120,120,0,1,0,240,0V711.43l-240-1.59Z"/><path class="cls-3" d="M672.49,314.54q-9.72,0-19.27.57c-5.54.32-11.05.79-16.49,1.4V770.6a138.33,138.33,0,0,0,72.79,121.72H479.69c7.78,5.84,15.82,11.36,24.11,16.47a319.49,319.49,0,0,0,168.69,47.84c177.31,0,321-143.73,321-321S849.8,314.54,672.49,314.54ZM653.22,770.6V708.11l243.43,1.61V770.6a121.72,121.72,0,1,1-243.43,0Z"/><g id="news"><rect class="cls-2" x="153.26" y="190.15" width="188.99" height="188.99" rx="9.96"/><path class="cls-3" d="M332.28,191.87H163.22a8.25,8.25,0,0,0-8.25,8.24V369.18a8.25,8.25,0,0,0,8.25,8.24H332.28a8.25,8.25,0,0,0,8.25-8.24V200.11A8.25,8.25,0,0,0,332.28,191.87Z"/><path class="cls-4" d="M94.72,910.51a10,10,0,0,1-10-9.94v-769a10,10,0,0,1,10-10H645a10,10,0,0,1,10,10V689.92l250,1.65a10,10,0,0,1,9.9,10V770.6c0,77.15-62.77,139.91-139.92,139.91ZM654.93,770.6a120,120,0,1,0,240,0V711.43l-240-1.59Zm48.11,120a139.93,139.93,0,0,1-68-120v-629H104.68v749Z"/><path class="cls-4" d="M905,693.29l-251.73-1.67v-560a8.24,8.24,0,0,0-8.25-8.24H94.72a8.24,8.24,0,0,0-8.24,8.24v769a8.22,8.22,0,0,0,8.24,8.22H774.94c76.19,0,138.2-62,138.2-138.19V701.53A8.24,8.24,0,0,0,905,693.29Zm-802,199V139.86H636.73V770.6a138.33,138.33,0,0,0,72.79,121.72ZM896.65,770.6a121.72,121.72,0,1,1-243.43,0V708.11l243.43,1.61Z"/><path class="cls-4" d="M407.66,210.07a10,10,0,0,1,0-19.93H576.73a10,10,0,0,1,0,19.93Z"/><path class="cls-4" d="M576.73,208.35H407.66a8.25,8.25,0,0,1,0-16.49H576.73a8.25,8.25,0,1,1,0,16.49Z"/><path class="cls-4" d="M407.66,294.6a10,10,0,0,1,0-19.92H576.73a10,10,0,1,1,0,19.92Z"/><path class="cls-4" d="M576.73,292.88H407.66a8.24,8.24,0,1,1,0-16.48H576.73a8.24,8.24,0,1,1,0,16.48Z"/><path class="cls-4" d="M407.67,379.14a10,10,0,0,1,0-19.93H576.73a10,10,0,0,1,0,19.93Z"/><path class="cls-4" d="M585,369.18a8.25,8.25,0,0,1-8.25,8.24H407.67a8.25,8.25,0,1,1,0-16.49H576.73A8.25,8.25,0,0,1,585,369.18Z"/><path class="cls-4" d="M163.22,463.68a10,10,0,0,1,0-19.93H576.73a10,10,0,0,1,0,19.93Z"/><path class="cls-4" d="M585,453.72a8.25,8.25,0,0,1-8.25,8.24H163.22a8.25,8.25,0,1,1,0-16.49H576.73A8.25,8.25,0,0,1,585,453.72Z"/><path class="cls-4" d="M163.22,548.2a10,10,0,1,1,0-19.92H576.73a10,10,0,0,1,0,19.92Z"/><path class="cls-4" d="M585,538.24a8.25,8.25,0,0,1-8.25,8.24H163.22a8.25,8.25,0,1,1,0-16.49H576.73A8.26,8.26,0,0,1,585,538.24Z"/><path class="cls-4" d="M163.22,632.74a10,10,0,0,1,0-19.92H576.73a10,10,0,1,1,0,19.92Z"/><path class="cls-4" d="M585,622.78a8.25,8.25,0,0,1-8.25,8.24H163.22a8.24,8.24,0,1,1,0-16.48H576.73A8.25,8.25,0,0,1,585,622.78Z"/><path class="cls-4" d="M163.22,717.28a10,10,0,0,1,0-19.92H576.73a10,10,0,1,1,0,19.92Z"/><path class="cls-4" d="M585,707.32a8.25,8.25,0,0,1-8.25,8.24H163.22a8.24,8.24,0,1,1,0-16.48H576.73A8.25,8.25,0,0,1,585,707.32Z"/><path class="cls-4" d="M163.22,801.81a10,10,0,1,1,0-19.91H576.73a10,10,0,1,1,0,19.91Z"/><path class="cls-4" d="M585,791.84a8.25,8.25,0,0,1-8.25,8.25H163.22a8.24,8.24,0,1,1,0-16.47H576.73A8.23,8.23,0,0,1,585,791.84Z"/></g></g></svg>