<svg xmlns="http://www.w3.org/2000/svg" viewBox="0 0 1080 1080"><defs><style>.cls-1{isolation:isolate;}.cls-2,.cls-3{fill:#d1d3d4;}.cls-12,.cls-2,.cls-8,.cls-9{mix-blend-mode:multiply;}.cls-4{fill:#fff;}.cls-5{fill:#f5425c;}.cls-6{fill:#414042;}.cls-7{fill:#546885;}.cls-13,.cls-8{fill:#f1f2f2;}.cls-9{fill:#e6e7e8;}.cls-10{fill:#b2bdcf;}.cls-11{fill:#f56e82;}.cls-14{fill:#475870;}</style></defs><g class="cls-1"><g id="Layer_1" data-name="Layer 1"><path class="cls-2" d="M728.49,288h-7.62V254a12.08,12.08,0,0,0-12-12h-6a12,12,0,0,0-12,12v34H624.2V254a12.07,12.07,0,0,0-12-12h-6a12,12,0,0,0-12,12v34H527.54V254a12.07,12.07,0,0,0-12-12h-6a12,12,0,0,0-12,12v34H430.87V254a12,12,0,0,0-12-12h-6a12,12,0,0,0-12,12v34H334.21V254a12.05,12.05,0,0,0-12-12h-6a12,12,0,0,0-12,12v34h-7.62a58.42,58.42,0,0,0-58.42,58.42V767.83a58.42,58.42,0,0,0,58.42,58.42h432a58.41,58.41,0,0,0,58.41-58.42V346.39A58.41,58.41,0,0,0,728.49,288Z"/><rect class="cls-3" x="217.1" y="277.46" width="548.79" height="527.77" rx="58.42"/><rect class="cls-4" x="217.1" y="266.95" width="548.79" height="527.77" rx="58.42"/><path class="cls-5" d="M765.89,325.37v94.72H217.1V325.37A58.42,58.42,0,0,1,275.52,267h432A58.43,58.43,0,0,1,765.89,325.37Z"/><circle class="cls-6" cx="298.16" cy="300.51" r="16.53" transform="translate(-44.08 51.36) rotate(-9.17)"/><rect class="cls-7" x="283.14" y="220.96" width="30.05" height="90.34" rx="12.02"/><path class="cls-8" d="M313.19,233v66.3a12,12,0,0,1-12,12h-3V221h3A12,12,0,0,1,313.19,233Z"/><circle class="cls-6" cx="394.83" cy="300.51" r="16.53" transform="translate(-27.61 40.23) rotate(-5.64)"/><rect class="cls-7" x="379.8" y="220.96" width="30.05" height="90.34" rx="12.02"/><path class="cls-8" d="M409.85,233v66.3a12,12,0,0,1-12,12h-3V221h3A12,12,0,0,1,409.85,233Z"/><circle class="cls-6" cx="491.49" cy="300.51" r="16.53" transform="translate(-32.92 62.05) rotate(-6.99)"/><rect class="cls-7" x="476.47" y="220.96" width="30.05" height="90.34" rx="12.02"/><path class="cls-8" d="M506.52,233v66.3a12,12,0,0,1-12,12h-3V221h3A12,12,0,0,1,506.52,233Z"/><circle class="cls-6" cx="588.16" cy="300.51" r="16.53" transform="translate(-71.67 329.96) rotate(-29.62)"/><rect class="cls-7" x="573.13" y="220.96" width="30.05" height="90.34" rx="12.02"/><path class="cls-8" d="M603.18,233v66.3a12,12,0,0,1-12,12h-3V221h3A12,12,0,0,1,603.18,233Z"/><circle class="cls-6" cx="684.82" cy="300.51" r="16.53" transform="translate(-23.21 59.72) rotate(-4.91)"/><rect class="cls-7" x="669.79" y="220.96" width="30.05" height="90.34" rx="12.02"/><path class="cls-8" d="M699.85,233v66.3a12,12,0,0,1-12,12h-3V221h3A12,12,0,0,1,699.85,233Z"/><rect class="cls-9" x="217.1" y="410.9" width="548.79" height="9.19"/><rect class="cls-9" x="217.1" y="420.09" width="548.79" height="9.19"/><rect class="cls-10" x="270.68" y="473.35" width="54.97" height="54.97" rx="15.55"/><rect class="cls-10" x="367.34" y="473.35" width="54.97" height="54.97" rx="15.55"/><rect class="cls-10" x="464.01" y="473.35" width="54.97" height="54.97" rx="15.55"/><rect class="cls-10" x="560.67" y="473.35" width="54.97" height="54.97" rx="15.55"/><rect class="cls-10" x="657.34" y="473.35" width="54.97" height="54.97" rx="15.55"/><rect class="cls-10" x="270.68" y="571.08" width="54.97" height="54.97" rx="15.55"/><rect class="cls-10" x="367.34" y="571.08" width="54.97" height="54.97" rx="15.55"/><rect class="cls-10" x="464.01" y="571.08" width="54.97" height="54.97" rx="15.55"/><rect class="cls-10" x="560.67" y="571.08" width="54.97" height="54.97" rx="15.55"/><rect class="cls-10" x="657.34" y="571.08" width="54.97" height="54.97" rx="15.55"/><rect class="cls-10" x="270.68" y="668.81" width="54.97" height="54.97" rx="15.55"/><rect class="cls-11" x="367.34" y="668.81" width="54.97" height="54.97" rx="15.55"/><rect class="cls-10" x="464.01" y="668.81" width="54.97" height="54.97" rx="15.55"/><rect class="cls-10" x="560.67" y="668.81" width="54.97" height="54.97" rx="15.55"/><rect class="cls-10" x="657.34" y="668.81" width="54.97" height="54.97" rx="15.55"/><path class="cls-2" d="M367.43,663l-12.6-54.74a106.15,106.15,0,1,0-47.62,45.42l52.39,16.55A6.14,6.14,0,0,0,367.43,663Z"/><path class="cls-5" d="M359,654.63l-12.6-54.74a106.09,106.09,0,1,0-47.62,45.43l52.4,16.54A6.13,6.13,0,0,0,359,654.63Z"/><g class="cls-12"><path class="cls-3" d="M247.78,569.46l-3.31-49.62q-.93-14.5-.93-20.82,0-8.59,4.5-13.41a15.5,15.5,0,0,1,11.86-4.82q8.91,0,11.92,6.16t3,17.77a133.69,133.69,0,0,1-.73,13.88l-4.45,51.07c-.48,6.07-1.52,10.74-3.11,14a8.13,8.13,0,0,1-7.87,4.87q-5.6,0-7.77-4.71T247.78,569.46Z"/><path class="cls-3" d="M259.28,630.93a16.29,16.29,0,0,1-11-4.1q-4.71-4.08-4.71-11.44A15.38,15.38,0,0,1,259.07,600a15.36,15.36,0,0,1,11.14,4.51,14.73,14.73,0,0,1,4.61,10.93q0,7.25-4.66,11.39A15.88,15.88,0,0,1,259.28,630.93Z"/></g><path class="cls-4" d="M242.53,564.21l-3.32-49.62q-.93-14.5-.93-20.82,0-8.59,4.51-13.42a15.47,15.47,0,0,1,11.86-4.82q8.91,0,11.91,6.17t3,17.76a136.36,136.36,0,0,1-.73,13.88l-4.45,51.07q-.74,9.12-3.11,14a8.15,8.15,0,0,1-7.87,4.87q-5.59,0-7.77-4.72T242.53,564.21Z"/><path class="cls-4" d="M254,625.67a16.27,16.27,0,0,1-11-4.09q-4.73-4.1-4.72-11.45a15.4,15.4,0,0,1,15.54-15.43A15.35,15.35,0,0,1,265,599.21a14.7,14.7,0,0,1,4.61,10.92q0,7.26-4.67,11.4A15.84,15.84,0,0,1,254,625.67Z"/><circle class="cls-2" cx="774.29" cy="700" r="158.29" transform="translate(-268.19 752.53) rotate(-45)"/><circle class="cls-7" cx="765.89" cy="691.6" r="158.29"/><path class="cls-2" d="M924.18,691.6A158.29,158.29,0,0,1,654,803.52L877.82,579.67A157.79,157.79,0,0,1,924.18,691.6Z"/><circle class="cls-13" cx="765.89" cy="691.6" r="130.53"/><path class="cls-9" d="M652.1,755.56A130.53,130.53,0,0,1,878.17,625c-32.49-54.48-108.38-69.75-170.33-34S621.17,700.18,652.1,755.56Z"/><circle class="cls-14" cx="765.89" cy="581.18" r="7.29"/><path class="cls-14" d="M717,592.32a7.29,7.29,0,1,1-10-2.67A7.29,7.29,0,0,1,717,592.32Z"/><path class="cls-14" d="M673.91,630.07a7.29,7.29,0,1,1-10,2.67A7.29,7.29,0,0,1,673.91,630.07Z"/><circle class="cls-14" cx="655.47" cy="691.6" r="7.29"/><path class="cls-14" d="M666.62,740.49a7.29,7.29,0,1,1-2.67,10A7.28,7.28,0,0,1,666.62,740.49Z"/><path class="cls-14" d="M704.36,783.58a7.29,7.29,0,1,1,2.67,10A7.3,7.3,0,0,1,704.36,783.58Z"/><circle class="cls-14" cx="765.89" cy="802.02" r="7.29"/><circle class="cls-14" cx="821.1" cy="787.22" r="7.29" transform="translate(-303.4 615.71) rotate(-35.12)"/><path class="cls-14" d="M857.87,753.12a7.29,7.29,0,1,1,10-2.67A7.29,7.29,0,0,1,857.87,753.12Z"/><circle class="cls-14" cx="876.31" cy="691.6" r="7.29"/><path class="cls-14" d="M865.16,642.7a7.29,7.29,0,1,1,2.67-10A7.29,7.29,0,0,1,865.16,642.7Z"/><circle class="cls-14" cx="821.1" cy="595.97" r="7.29" transform="translate(-138.75 924.7) rotate(-54.88)"/><path class="cls-14" d="M765.89,715.06a5,5,0,0,1-5-5V604.5a5,5,0,0,1,10,0V710.09A5,5,0,0,1,765.89,715.06Z"/><path class="cls-14" d="M837.17,698H747.4a6.41,6.41,0,1,1,0-12.81h89.77a6.41,6.41,0,0,1,0,12.81Z"/><circle class="cls-14" cx="765.89" cy="691.6" r="13.97"/></g></g></svg>