<svg id="Layer_1" data-name="Layer 1" xmlns="http://www.w3.org/2000/svg" xmlns:xlink="http://www.w3.org/1999/xlink" viewBox="0 0 1080 1080"><defs><style>.cls-1{fill:none;}.cls-2{fill:#d1d8db;}.cls-3{fill:#bec9cc;}.cls-4{fill:#aeb8ba;}.cls-5{fill:#fdfeff;}.cls-6{clip-path:url(#clip-path);}.cls-7{fill:#e4ebf2;}.cls-8{fill:#0054b2;}.cls-9{fill:#fcaf01;}.cls-10{fill:#f6a049;}.cls-11{fill:#da2d65;}.cls-12{fill:#ff7664;}.cls-13{clip-path:url(#clip-path-2);}.cls-14{fill:#fb5d40;}.cls-15{fill:#228976;}.cls-16{fill:#f48725;}.cls-17{fill:#312e35;}.cls-18{fill:#616161;}.cls-19{fill:#fff6e6;}.cls-20{fill:#ffe197;}.cls-21{fill:#ffd24c;}.cls-22{fill:#fff;}</style><clipPath id="clip-path"><path class="cls-1" d="M226,752.19a61.53,61.53,0,0,1,38.54,56.88v5.79A61.56,61.56,0,0,1,226,871.75v4.47H822.3a61.54,61.54,0,0,0,61.36-61.36v-5.79a61.54,61.54,0,0,0-61.36-61.36H226Z"/></clipPath><clipPath id="clip-path-2"><path class="cls-1" d="M519.14,638.68H822V531.44H519.14A30.66,30.66,0,0,0,488.58,562v46.1A30.66,30.66,0,0,0,519.14,638.68Z"/></clipPath></defs><rect class="cls-2" x="142.52" y="367.8" width="832.5" height="373.28"/><rect class="cls-3" x="121.43" y="741.09" width="874.67" height="46.38"/><rect class="cls-3" x="121.43" y="321.42" width="874.67" height="46.38"/><polygon class="cls-2" points="558.77 190.63 142.52 321.42 558.77 321.42 975.02 321.42 558.77 190.63"/><polygon class="cls-3" points="558.77 216.31 257.63 303.06 859.91 303.06 558.77 216.31"/><rect class="cls-3" x="181.51" y="367.8" width="67.47" height="373.29"/><path class="cls-4" d="M262.25,375.55a7.74,7.74,0,0,1-7.75,7.74H179a7.74,7.74,0,0,1-7.75-7.74h0A7.75,7.75,0,0,1,179,367.8H254.5a7.75,7.75,0,0,1,7.75,7.75Z"/><path class="cls-4" d="M189.52,380.83a13,13,0,1,1-13-13A13,13,0,0,1,189.52,380.83Z"/><path class="cls-4" d="M266.26,380.83a13,13,0,1,1-13-13A13,13,0,0,1,266.26,380.83Z"/><path class="cls-4" d="M167.48,733.35a7.74,7.74,0,0,1,7.74-7.75h75.52a7.74,7.74,0,0,1,7.74,7.75h0a7.74,7.74,0,0,1-7.74,7.74H175.22a7.74,7.74,0,0,1-7.74-7.74Z"/><path class="cls-4" d="M240.2,728.07a13,13,0,1,1,13,13A13,13,0,0,1,240.2,728.07Z"/><path class="cls-4" d="M163.47,728.07a13,13,0,1,1,13,13A13,13,0,0,1,163.47,728.07Z"/><rect class="cls-3" x="326.08" y="367.8" width="67.47" height="373.29"/><path class="cls-4" d="M407.2,375.55a7.74,7.74,0,0,1-7.74,7.74H323.94a7.74,7.74,0,0,1-7.75-7.74h0a7.75,7.75,0,0,1,7.75-7.75h75.52a7.75,7.75,0,0,1,7.74,7.75Z"/><path class="cls-4" d="M334.48,380.83a13,13,0,1,1-13-13A13,13,0,0,1,334.48,380.83Z"/><path class="cls-4" d="M411.21,380.83a13,13,0,1,1-13-13A13,13,0,0,1,411.21,380.83Z"/><path class="cls-4" d="M312.43,733.35a7.75,7.75,0,0,1,7.74-7.75h75.52a7.74,7.74,0,0,1,7.74,7.75h0a7.74,7.74,0,0,1-7.74,7.74H320.17a7.75,7.75,0,0,1-7.74-7.74Z"/><path class="cls-4" d="M385.15,728.07a13,13,0,1,1,13,13A13,13,0,0,1,385.15,728.07Z"/><path class="cls-4" d="M308.42,728.07a13,13,0,1,1,13,13A13,13,0,0,1,308.42,728.07Z"/><rect class="cls-3" x="724.36" y="367.8" width="67.47" height="373.29"/><path class="cls-4" d="M805.1,375.55a7.73,7.73,0,0,1-7.74,7.74H721.84a7.73,7.73,0,0,1-7.74-7.74h0a7.74,7.74,0,0,1,7.74-7.75h75.52a7.74,7.74,0,0,1,7.74,7.75Z"/><path class="cls-4" d="M732.38,380.83a13,13,0,1,1-13-13A13,13,0,0,1,732.38,380.83Z"/><path class="cls-4" d="M809.11,380.83a13,13,0,1,1-13-13A13,13,0,0,1,809.11,380.83Z"/><path class="cls-4" d="M710.33,733.35a7.75,7.75,0,0,1,7.74-7.75h75.52a7.75,7.75,0,0,1,7.75,7.75h0a7.75,7.75,0,0,1-7.75,7.74H718.07a7.75,7.75,0,0,1-7.74-7.74Z"/><path class="cls-4" d="M783.05,728.07a13,13,0,1,1,13,13A13,13,0,0,1,783.05,728.07Z"/><path class="cls-4" d="M706.32,728.07a13,13,0,1,1,13,13A13,13,0,0,1,706.32,728.07Z"/><rect class="cls-3" x="868.93" y="367.8" width="67.47" height="373.29"/><path class="cls-4" d="M950.05,375.55a7.73,7.73,0,0,1-7.74,7.74H866.79a7.74,7.74,0,0,1-7.74-7.74h0a7.75,7.75,0,0,1,7.74-7.75h75.52a7.74,7.74,0,0,1,7.74,7.75Z"/><path class="cls-4" d="M877.33,380.83a13,13,0,1,1-13-13A13,13,0,0,1,877.33,380.83Z"/><path class="cls-4" d="M954.06,380.83a13,13,0,1,1-13-13A13,13,0,0,1,954.06,380.83Z"/><path class="cls-4" d="M855.28,733.35A7.75,7.75,0,0,1,863,725.6h75.51a7.75,7.75,0,0,1,7.75,7.75h0a7.75,7.75,0,0,1-7.75,7.74H863a7.75,7.75,0,0,1-7.75-7.74Z"/><path class="cls-4" d="M928,728.07a13,13,0,1,1,13,13A13,13,0,0,1,928,728.07Z"/><path class="cls-4" d="M851.28,728.07a13,13,0,1,1,13,13A13,13,0,0,1,851.28,728.07Z"/><path class="cls-5" d="M226,752.19a61.53,61.53,0,0,1,38.54,56.88v5.79A61.56,61.56,0,0,1,226,871.75v4.47H822.3a61.54,61.54,0,0,0,61.36-61.36v-5.79a61.54,61.54,0,0,0-61.36-61.36H226Z"/><g class="cls-6"><rect class="cls-7" x="134.44" y="857.29" width="821.34" height="6.6"/><rect class="cls-7" x="134.44" y="837.5" width="821.34" height="6.6"/><rect class="cls-7" x="134.44" y="817.72" width="821.34" height="6.59"/><rect class="cls-7" x="134.44" y="797.93" width="821.34" height="6.6"/><rect class="cls-7" x="134.44" y="778.14" width="821.34" height="6.59"/><rect class="cls-7" x="134.44" y="758.36" width="821.34" height="6.59"/></g><path class="cls-8" d="M226,752.19v8.67H822.3a48.27,48.27,0,0,1,48.21,48.21v5.79a48.26,48.26,0,0,1-48.21,48.21H226v26.3H822.3a74.59,74.59,0,0,0,74.5-74.51v-5.79a74.58,74.58,0,0,0-74.5-74.5H226Z"/><polygon class="cls-9" points="428.03 836.49 409.03 823.72 390.55 836.49 390.55 778.14 428.03 778.14 428.03 836.49"/><rect class="cls-10" x="233.54" y="648.4" width="655.7" height="86.16"/><rect class="cls-11" x="274.32" y="648.4" width="35.28" height="86.16"/><rect class="cls-11" x="329.9" y="648.4" width="35.28" height="86.16"/><rect class="cls-11" x="757.6" y="648.4" width="35.28" height="86.16"/><rect class="cls-11" x="813.18" y="648.4" width="35.28" height="86.16"/><path class="cls-12" d="M341.12,521.72h414V648.4h-414a40.33,40.33,0,0,1-40.29-40.29V562A40.33,40.33,0,0,1,341.12,521.72Z"/><path class="cls-5" d="M519.14,638.68H822V531.44H519.14A30.66,30.66,0,0,0,488.58,562v46.1A30.66,30.66,0,0,0,519.14,638.68Z"/><g class="cls-13"><rect class="cls-7" x="327.96" y="533.15" width="654.62" height="6.59"/><rect class="cls-7" x="327.96" y="552.94" width="654.62" height="6.6"/><rect class="cls-7" x="327.96" y="572.72" width="654.62" height="6.59"/><rect class="cls-7" x="327.96" y="592.51" width="654.62" height="6.6"/><rect class="cls-7" x="327.96" y="612.3" width="654.62" height="6.59"/><rect class="cls-7" x="327.96" y="632.08" width="654.62" height="6.59"/></g><path class="cls-14" d="M519.14,521.72H822v19.45H519.14A20.87,20.87,0,0,0,498.3,562v46.1A20.87,20.87,0,0,0,519.14,629H822V648.4H519.14a40.34,40.34,0,0,1-40.29-40.29V562A40.34,40.34,0,0,1,519.14,521.72Z"/><rect class="cls-15" x="294.3" y="477.26" width="534.19" height="44.46"/><rect class="cls-16" x="315.9" y="477.26" width="18.69" height="44.46"/><rect class="cls-16" x="345.34" y="477.26" width="18.69" height="44.46"/><rect class="cls-16" x="758.75" y="477.26" width="18.69" height="44.46"/><rect class="cls-16" x="788.2" y="477.26" width="18.69" height="44.46"/><rect class="cls-17" x="424.45" y="337.54" width="273.88" height="140.46"/><path class="cls-18" d="M599.38,302.73c-20.89-3.19-55.08-3.19-76,0L356.6,328.24c-20.89,3.19-20.65,8.24.54,11.2l165.72,23.2c21.19,3,55.88,3,77.06,0l165.72-23.2c21.19-3,21.44-8,.55-11.2Z"/><path class="cls-16" d="M723.13,441c-8.67-14.09-14.46-30.27-17.76-46.6a10.7,10.7,0,0,0-1.47-19.88v-7h0V351.28a2.75,2.75,0,0,0-2.13-2.58C653.64,335,608.57,334.93,557.71,325c-3.66-.71-5.51,3.35-1.85,3.87,135,19.46,141.66,26.64,142.24,26.85v18.56A10.72,10.72,0,0,0,696,394.4v.35A158,158,0,0,1,678.58,441c-2.21,3.91,3.79,7.41,6,3.51,1.48-2.63,2.88-5.32,4.24-8-.61,1.53-1.22,3-1.9,4.53-1.86,4,4.13,7.57,6,3.51,1.13-2.47,2.14-5,3.08-7.54v5.78c0,4.48,7,4.48,7,0v-6.17a80.8,80.8,0,0,0,3.08,7.93c1.86,4.07,7.84.53,6-3.51a82,82,0,0,1-5.78-18.78,136.14,136.14,0,0,0,10.9,22.29C719.47,448.31,725.48,444.83,723.13,441Z"/><path class="cls-17" d="M583.46,331.25c0,4.22-9.88,7.64-22.07,7.64s-22.07-3.42-22.07-7.64,9.88-7.64,22.07-7.64S583.46,327,583.46,331.25Z"/><polygon class="cls-19" points="820.75 608.64 826.99 546.96 878.96 580.75 820.75 608.64"/><polygon class="cls-17" points="826.99 546.96 824.7 569.53 846 559.32 826.99 546.96"/><rect class="cls-20" x="880.3" y="580.45" width="64.56" height="288.55" transform="translate(-224.24 468.47) rotate(-25.75)"/><rect class="cls-21" x="901.03" y="580.45" width="23.09" height="288.55" transform="translate(-224.22 468.36) rotate(-25.75)"/><polygon class="cls-17" points="1000.39 832.48 942.24 860.52 956.58 887.74 1014.73 859.69 1000.39 832.48"/><rect class="cls-8" x="162.31" y="683.68" width="47.24" height="18.48" transform="translate(-509.35 516) rotate(-60.7)"/><path class="cls-21" d="M113,875a25.47,25.47,0,0,1-34.67,9.75h0a25.47,25.47,0,0,1-9.75-34.67l79.78-142.18A25.47,25.47,0,0,1,183,698.17h0a25.47,25.47,0,0,1,9.75,34.67Z"/><path class="cls-17" d="M300.61,652.07A80,80,0,1,1,270,543.13,80,80,0,0,1,300.61,652.07Z"/><path class="cls-22" d="M282.84,642.1A59.64,59.64,0,1,1,260,560.9,59.64,59.64,0,0,1,282.84,642.1Z"/></svg>