<svg xmlns="http://www.w3.org/2000/svg" viewBox="0 0 1080 1080"><defs><style>.cls-1{isolation:isolate;}.cls-18,.cls-2{fill:#f5425c;}.cls-3{fill:#303838;}.cls-4{fill:#252b2b;}.cls-5,.cls-8{fill:#f3f2f2;}.cls-10,.cls-15,.cls-5,.cls-6{fill-rule:evenodd;}.cls-6,.cls-7{fill:#bbbcbb;}.cls-20,.cls-26,.cls-9{fill:#fff;}.cls-10,.cls-24{fill:#f05b26;}.cls-11{fill:#d3d1c8;}.cls-12{fill:#f9f9f9;}.cls-13,.cls-27{fill:#e3e2df;}.cls-14,.cls-15{fill:#c9c8c9;}.cls-16{fill:#d1d2d1;}.cls-17{fill:#e2e0e0;}.cls-18{stroke:#fff;stroke-width:2px;}.cls-18,.cls-20,.cls-21{stroke-miterlimit:10;}.cls-19,.cls-28{fill:#fbe9be;mix-blend-mode:overlay;}.cls-19{opacity:0.18;}.cls-20,.cls-21,.cls-22{stroke:#000;stroke-width:5px;}.cls-21,.cls-22{fill:none;}.cls-22{stroke-linejoin:round;}.cls-23{fill:#475151;}.cls-25{fill:#dd5126;}.cls-26{opacity:0.26;}.cls-27{opacity:0.72;mix-blend-mode:multiply;}.cls-28{opacity:0.33;}</style></defs><g class="cls-1"><g id="Layer_1" data-name="Layer 1"><circle class="cls-2" cx="540" cy="540" r="361.53" transform="translate(-223.68 540) rotate(-45)"/><path class="cls-3" d="M824.77,742.4a22.65,22.65,0,0,1-22.64,22.65H242.53a22.65,22.65,0,0,1-22.65-22.65V420.17a22.65,22.65,0,0,1,22.65-22.64h559.6a22.64,22.64,0,0,1,22.64,22.64Z"/><path class="cls-4" d="M219.88,736.06v9.28c0,10.89,10.14,19.71,22.65,19.71h559.6c12.5,0,22.64-8.82,22.64-19.71v-9.28Z"/><path class="cls-5" d="M894.21,743.87H150.44v22.06c8.82,13.15,30.29,22.55,41.32,22.55H853c10.94,0,32.27-9.3,41.17-22.36Z"/><path class="cls-6" d="M150.84,766.61c9.09,12.8,30,21.87,40.86,21.87H853c10.8,0,31.73-9.07,40.84-21.87Z"/><path class="cls-7" d="M459.66,744.43a16.58,16.58,0,0,0,16.52,15.22h92.29A16.58,16.58,0,0,0,585,744.43Z"/><polygon class="cls-8" points="284.45 421.03 255.73 421.03 255.73 715.59 788.92 715.59 788.92 675.4 284.45 421.03"/><polygon class="cls-9" points="788.92 421.03 284.45 421.03 788.92 675.4 788.92 421.03"/><polygon class="cls-10" points="764.98 717.53 279.67 717.53 279.67 351.37 524.19 351.37 764.98 351.37 764.98 717.53"/><rect class="cls-11" x="291.65" y="675.32" width="461.54" height="31.03"/><path class="cls-12" d="M559.05,339.44c-16,3.27-29.41,11.11-37.23,21.46V675.14l1,17.71c3.1-5.11,7.11-14.89,23.08-17.71H752.67l1-335.88Z"/><path class="cls-9" d="M485.61,339.44c16,3.27,29.42,11.11,37.23,21.46V692.64c-5.55-7.35-13.91-13.42-24-17.5H292l-1-335.88Z"/><path class="cls-13" d="M486.29,339.59V675.14s20.19-1.86,36.27,17.94l.28-332.18C515.14,350.7,502,343,486.29,339.59Z"/><rect class="cls-14" x="365.4" y="388.41" width="81.76" height="4.06"/><rect class="cls-14" x="351.96" y="403.2" width="123.05" height="4.06"/><rect class="cls-14" x="337.55" y="410.33" width="137.47" height="4.07"/><rect class="cls-14" x="337.55" y="417.45" width="137.47" height="4.07"/><rect class="cls-14" x="337.55" y="424.57" width="137.47" height="4.07"/><rect class="cls-14" x="337.55" y="431.7" width="137.47" height="4.07"/><rect class="cls-14" x="337.55" y="438.82" width="137.47" height="4.07"/><rect class="cls-14" x="337.55" y="445.94" width="137.47" height="4.07"/><rect class="cls-14" x="337.55" y="453.06" width="137.47" height="4.08"/><rect class="cls-14" x="337.55" y="460.19" width="68.73" height="4.07"/><rect class="cls-14" x="351.96" y="467.74" width="123.05" height="4.07"/><rect class="cls-14" x="337.55" y="474.87" width="137.47" height="4.07"/><rect class="cls-14" x="337.55" y="481.99" width="137.47" height="4.06"/><rect class="cls-14" x="337.55" y="489.12" width="137.47" height="4.07"/><rect class="cls-14" x="337.55" y="496.24" width="137.47" height="4.06"/><rect class="cls-14" x="337.55" y="503.36" width="137.47" height="4.07"/><rect class="cls-14" x="337.55" y="510.49" width="137.47" height="4.07"/><rect class="cls-14" x="337.55" y="517.6" width="137.47" height="4.07"/><rect class="cls-14" x="337.55" y="524.74" width="113.71" height="4.07"/><rect class="cls-14" x="351.96" y="532.28" width="123.05" height="4.07"/><rect class="cls-14" x="337.55" y="539.41" width="137.47" height="4.07"/><rect class="cls-14" x="337.55" y="546.53" width="137.47" height="4.07"/><rect class="cls-14" x="337.55" y="553.65" width="137.47" height="4.07"/><rect class="cls-14" x="337.55" y="560.79" width="137.47" height="4.06"/><rect class="cls-14" x="337.55" y="567.91" width="137.47" height="4.07"/><rect class="cls-14" x="337.55" y="582.15" width="137.47" height="4.08"/><polygon class="cls-15" points="337.55 574.63 475.01 574.61 475.01 578.69 337.55 578.69 337.55 574.63"/><rect class="cls-14" x="337.55" y="581.74" width="137.47" height="4.07"/><rect class="cls-14" x="337.55" y="588.87" width="137.47" height="4.07"/><rect class="cls-14" x="337.55" y="595.99" width="137.47" height="4.06"/><rect class="cls-14" x="337.55" y="603.12" width="137.47" height="4.07"/><rect class="cls-14" x="337.55" y="610.23" width="137.47" height="4.07"/><rect class="cls-14" x="337.55" y="617.36" width="137.47" height="4.07"/><rect class="cls-14" x="597.5" y="388.41" width="81.75" height="4.06"/><rect class="cls-14" x="584.07" y="403.2" width="123.05" height="4.06"/><rect class="cls-14" x="569.64" y="410.33" width="137.48" height="4.07"/><rect class="cls-14" x="569.64" y="417.45" width="137.48" height="4.07"/><rect class="cls-14" x="569.64" y="424.57" width="137.48" height="4.07"/><rect class="cls-14" x="569.64" y="431.7" width="137.48" height="4.07"/><rect class="cls-14" x="569.64" y="438.82" width="137.48" height="4.07"/><rect class="cls-14" x="569.64" y="445.94" width="137.48" height="4.07"/><rect class="cls-14" x="569.64" y="453.06" width="137.48" height="4.08"/><rect class="cls-14" x="569.64" y="460.19" width="68.74" height="4.07"/><rect class="cls-14" x="584.07" y="467.74" width="123.05" height="4.07"/><rect class="cls-14" x="569.64" y="474.87" width="137.48" height="4.07"/><rect class="cls-14" x="569.64" y="481.99" width="137.48" height="4.06"/><rect class="cls-14" x="569.64" y="489.12" width="137.48" height="4.07"/><rect class="cls-14" x="569.64" y="496.24" width="137.48" height="4.06"/><rect class="cls-14" x="569.64" y="503.36" width="137.48" height="4.07"/><rect class="cls-14" x="569.64" y="510.49" width="137.48" height="4.07"/><rect class="cls-14" x="569.64" y="517.6" width="137.48" height="4.07"/><rect class="cls-14" x="569.64" y="524.74" width="113.72" height="4.07"/><rect class="cls-14" x="584.07" y="532.28" width="123.05" height="4.07"/><rect class="cls-14" x="569.64" y="539.41" width="137.48" height="4.07"/><rect class="cls-14" x="569.64" y="546.53" width="137.48" height="4.07"/><rect class="cls-14" x="569.64" y="553.65" width="137.48" height="4.07"/><rect class="cls-14" x="569.64" y="560.79" width="137.48" height="4.06"/><rect class="cls-14" x="569.64" y="567.91" width="137.48" height="4.07"/><rect class="cls-14" x="569.64" y="582.15" width="137.48" height="4.08"/><polygon class="cls-15" points="569.64 574.63 707.12 574.61 707.12 578.69 569.64 578.69 569.64 574.63"/><rect class="cls-14" x="569.64" y="581.74" width="137.48" height="4.07"/><rect class="cls-14" x="569.64" y="588.87" width="137.48" height="4.07"/><rect class="cls-14" x="569.64" y="595.99" width="137.48" height="4.06"/><rect class="cls-14" x="569.64" y="603.12" width="137.48" height="4.07"/><rect class="cls-14" x="569.64" y="610.23" width="137.48" height="4.07"/><rect class="cls-14" x="569.64" y="617.36" width="137.48" height="4.07"/><polygon class="cls-16" points="822.75 744.18 763.38 744.18 740.85 718.09 843.23 718.09 822.75 744.18"/><polygon class="cls-17" points="767.69 718.09 740.85 718.09 763.38 744.18 767.69 744.18 767.69 718.09"/><path class="cls-18" d="M861.5,654.35,906.35,571a136.33,136.33,0,0,0,12.77-23.73q1.5-3.63,2.81-7.37a136.24,136.24,0,1,0-257.21,0c.87,2.49,1.8,5,2.81,7.37A135.66,135.66,0,0,0,680.3,571l44.85,83.33"/><path class="cls-2" d="M793.32,358.69a138.12,138.12,0,0,0-15.58.89,136.25,136.25,0,0,1,113,180.34q-1.31,3.74-2.81,7.37A136.33,136.33,0,0,1,875.17,571l-44.85,83.33H861.5L906.35,571a136.33,136.33,0,0,0,12.77-23.73q1.5-3.63,2.81-7.37A136.27,136.27,0,0,0,793.32,358.69Z"/><path class="cls-19" d="M786.54,391.62c15.77,15.78,5.9,51.22-22,79.16s-63.39,37.82-79.16,22.05-5.9-51.22,22-79.16S770.76,375.85,786.54,391.62Z"/><line class="cls-20" x1="834.57" y1="654.35" x2="753.65" y2="654.35"/><polyline class="cls-21" points="746.87 531.01 770.09 509.46 793.32 531.01 816.53 509.46 839.78 531.01"/><polyline class="cls-22" points="769.4 655.28 769.4 586.63 863.02 508.11"/><polyline class="cls-22" points="817.25 655.28 817.25 586.63 723.63 508.11"/><path class="cls-8" d="M847.4,719.87c.11-1.71,22.34-22.79,22.34-24.52V654.41H718v40.94c0,1.73,19.47,22.81,19.57,24.52Z"/><path class="cls-16" d="M870.07,680.12H717.67a6.47,6.47,0,1,1,0-12.93h152.4a6.47,6.47,0,0,1,0,12.93Z"/><path class="cls-17" d="M767.29,667.19H717.67a6.47,6.47,0,1,0,0,12.93h49.62Z"/><path class="cls-16" d="M870.07,699.16H717.67a6.46,6.46,0,1,1,0-12.92h152.4a6.46,6.46,0,0,1,0,12.92Z"/><path class="cls-17" d="M767.29,686.24H717.67a6.46,6.46,0,1,0,0,12.92h49.62Z"/><rect class="cls-23" x="689.9" y="739.22" width="29.79" height="56.42" transform="translate(-331.7 660.82) rotate(-41.56)"/><rect class="cls-3" x="677.36" y="743.98" width="29.79" height="18.62" transform="translate(-325.47 648.97) rotate(-41.57)"/><rect class="cls-24" x="730.08" y="764.25" width="52.18" height="122.22" transform="matrix(0.75, -0.66, 0.66, 0.75, -357.2, 709.48)"/><rect class="cls-25" x="733.52" y="772.88" width="25.83" height="122.22" transform="translate(-365.38 705.21) rotate(-41.56)"/><rect class="cls-9" x="773.59" y="869.77" width="52.18" height="9.32" transform="translate(-378.8 750.69) rotate(-41.56)"/><rect class="cls-9" x="687.53" y="772.74" width="52.18" height="9.28" transform="translate(-336.08 669.21) rotate(-41.57)"/><path class="cls-23" d="M611,514.39A138.11,138.11,0,1,0,740.53,660.53,138.11,138.11,0,0,0,611,514.39Zm90.6,211.44a123.26,123.26,0,1,1-25.28-172.47A123.25,123.25,0,0,1,701.55,725.83Z"/><path class="cls-26" d="M610.06,529.12A123.35,123.35,0,1,0,725.8,659.64,123.35,123.35,0,0,0,610.06,529.12Z"/><path class="cls-27" d="M610.06,529.12a123.08,123.08,0,0,0-97.26,38.64,123.35,123.35,0,0,1,163,183.82,123.35,123.35,0,0,0-65.74-222.46Z"/><path class="cls-28" d="M532.46,584.21c20.85,1.25,35.95,32.22,33.74,69.17S545.27,719.26,524.42,718s-35.95-32.22-33.73-69.17S511.61,583,532.46,584.21Z"/></g></g></svg>