<svg id="Layer_1" data-name="Layer 1" xmlns="http://www.w3.org/2000/svg" viewBox="0 0 1080 1080"><defs><style>.cls-1{fill:#fff26d;}.cls-2{fill:#391e17;}.cls-3{fill:#910028;}.cls-4{fill:#fdce9f;}.cls-5{fill:#eb1c4e;}.cls-6{fill:#bb0c3c;}.cls-7{fill:#462822;}.cls-8{fill:#abc7d5;}.cls-9{fill:#c3d8e3;}.cls-10,.cls-28{fill:#fff;}.cls-11{fill:#59372f;}.cls-12{fill:#4f2e26;}.cls-13{fill:#69423a;}.cls-14{fill:#fbbc89;}.cls-15{fill:#f9a96e;}.cls-16{fill:#f05c59;}.cls-17{fill:#ed2743;}.cls-18{fill:#f48a75;}.cls-19{fill:#cf1244;}.cls-20{fill:#ed3f5c;}.cls-21{fill:#dae6ed;}.cls-22{fill:#31667a;}.cls-23{fill:#426677;}.cls-24{fill:#6d8d9d;}.cls-25{fill:#457285;}.cls-26{fill:#2f5464;}.cls-27{fill:#275669;}.cls-28{stroke:#211f1f;stroke-miterlimit:10;}</style></defs><circle class="cls-1" cx="497.92" cy="567.85" r="436.55"/><path class="cls-2" d="M434.36,573.94c-39.07-19.21-70.46-56.18-87.13-102.53-1.05,24.2,2.58,50.52,12.45,78.11,21.12,17.84,41.34,31.59,61,41.53a81.06,81.06,0,0,1,12.24-7C433.44,580.67,433.92,577.29,434.36,573.94Z"/><path class="cls-2" d="M648.56,458.17c-15.95,55.24-52.2,99.14-98.12,118.88.14.42.28.85.43,1.27a58.85,58.85,0,0,1,20.43,13.49C592,581.66,613.09,567.52,635,549.52,646.53,518.52,650.08,487.61,648.56,458.17Z"/><path class="cls-3" d="M432.93,584a81.06,81.06,0,0,0-12.24,7,53.77,53.77,0,0,0-4.55,3.54L428.9,606C430.41,599.35,431.75,591.78,432.93,584Z"/><path class="cls-3" d="M550.87,578.32c3.55,10.19,7.45,19.59,10.79,27.12l12.09-10.85c-.77-1-1.6-1.88-2.45-2.78A58.85,58.85,0,0,0,550.87,578.32Z"/><path class="cls-4" d="M561.66,605.44c-3.34-7.53-7.24-16.93-10.79-27.12-.15-.42-.29-.85-.43-1.27a137.4,137.4,0,0,1-116.08-3.11c-.44,3.35-.92,6.73-1.43,10.08-1.18,7.76-2.52,15.33-4,22l50,44.92,7.88,44.85h16.88L511,651Z"/><path class="cls-5" d="M574.85,695.81H702.5a31,31,0,0,1,16.6,4.82c-9.45-33.69-17.87-57.68-22.35-59.92-12.34-6.17-80.78-20.59-107.34-26a23.86,23.86,0,0,1,1,6.82C590.4,629.89,582.25,674.27,574.85,695.81Z"/><path class="cls-5" d="M732.94,753.87l-19,223.3c25.26-9.48,47.9-20.57,50.67-30.59C770,927.05,752.11,832.71,732.94,753.87Z"/><path class="cls-5" d="M213.57,943c3.23,8.51,25,21.75,47,33.35L245.3,797.61C224.5,863,207.56,927.18,213.57,943Z"/><path class="cls-5" d="M399.49,621.49q0-1.08.09-2.13c-28.11,3.59-89.31,12.21-96.19,20.07-2.5,2.86-11.61,25.09-23.15,56.38H415C407.64,674.27,399.49,629.89,399.49,621.49Z"/><path class="cls-5" d="M511,651l-7.27,44.85h51C537.74,679.15,511,651,511,651Z"/><path class="cls-5" d="M435.17,695.81h51.64L478.93,651S452.15,679.15,435.17,695.81Z"/><path class="cls-6" d="M415,695.81h20.13c17-16.66,43.76-44.85,43.76-44.85L428.9,606l-12.76-11.45c-8.4,7.2-15.68,14.4-16.56,24.77q-.09,1-.09,2.13C399.49,629.89,407.64,674.27,415,695.81Z"/><path class="cls-6" d="M511,651s26.78,28.19,43.76,44.85h20.13c7.4-21.54,15.55-65.92,15.55-74.32a23.86,23.86,0,0,0-1-6.82c-2.33-7.95-8.59-14-15.66-20.08l-12.09,10.85Z"/><path class="cls-7" d="M606.67,168s13.93.25,30.81,12.26c.72-2.52,1.37-5.08,1.87-7.7,9.51-49.35-25-97.48-77-107.5-47.67-9.18-93.52,16.84-108.16,59.24C499.52,117.58,551.71,131.08,606.67,168Z"/><path class="cls-8" d="M291.21,1008.42v.69a7.67,7.67,0,0,0,7.67,7.67h41a7.66,7.66,0,0,0,7.67-7.67v-.66H291.93Z"/><path class="cls-8" d="M631.4,1008.45v.66a7.67,7.67,0,0,0,7.67,7.67h41a7.66,7.66,0,0,0,7.67-7.67V1008a30.75,30.75,0,0,1-5.2.46Z"/><path class="cls-9" d="M272,712.47H702.5A31.19,31.19,0,0,1,733,737l.63-7.33a31.28,31.28,0,0,0-31.09-33.85H272a31.19,31.19,0,0,0-31.08,33.85l.62,7.33A31.2,31.2,0,0,1,272,712.47Z"/><path class="cls-10" d="M733.59,746.32a31.27,31.27,0,0,0-31.09-33.85H272a31.23,31.23,0,0,0-31.08,33.85l4.37,51.29,15.24,178.78.3,3.51a31.19,31.19,0,0,0,30.37,28.52l.72,0H682.58a30.75,30.75,0,0,0,5.2-.46,31.18,31.18,0,0,0,25.89-28.09l.23-2.73,19-223.3ZM487.26,821.38a39.08,39.08,0,1,1-39.08,39.08A39.08,39.08,0,0,1,487.26,821.38Z"/><circle class="cls-9" cx="487.26" cy="860.46" r="39.08"/><path class="cls-4" d="M495.76,588.41a137.93,137.93,0,0,0,54.68-11.36c45.92-19.74,82.17-63.64,98.12-118.88-5.52-107-78.07-194.4-78.07-194.4S510.71,324,447.78,333.27c-47.74,7-97.28,62.08-100.55,138.14,16.67,46.35,48.06,83.32,87.13,102.53A138.5,138.5,0,0,0,495.76,588.41Z"/><path class="cls-11" d="M347.23,471.41C350.5,395.35,400,340.3,447.78,333.27c62.93-9.26,122.71-69.5,122.71-69.5s72.55,87.4,78.07,194.4c1.52,29.44-2,60.35-13.57,91.35,0,0,61.33-47.88,61.35-188.44,0-116.07-32.91-162.36-58.86-180.82-16.88-12-30.81-12.26-30.81-12.26-55-36.92-107.15-50.42-152.43-43.7C376.39,135.86,319,207.23,303.05,322.46c-25.17,182.26,56.63,227.06,56.63,227.06C349.81,521.93,346.18,495.61,347.23,471.41Z"/><path class="cls-12" d="M626.77,264.63A64.39,64.39,0,0,1,617,292.88a207.34,207.34,0,0,0-34.45-81.51,376.89,376.89,0,0,1-125.17,69.9q2.34-11.38,4.69-22.78a224.31,224.31,0,0,0-94.58,84.83,232.58,232.58,0,0,0,4.68-47.58,249.4,249.4,0,0,0-59.49,140.8c-.38,4.38-2.19,10.19-6.57,9.76a5.94,5.94,0,0,1-3.33-1.7c14.25,81.56,56.87,104.92,56.87,104.92-9.87-27.59-13.5-53.91-12.45-78.11C350.5,395.35,400,340.3,447.78,333.27c62.93-9.26,122.71-69.5,122.71-69.5s72.55,87.4,78.07,194.4c1.52,29.44-2,60.35-13.57,91.35,0,0,35-27.35,52.13-101.34C660.8,390.75,666.45,315.65,626.77,264.63Z"/><path class="cls-13" d="M512,140.2c-49.29-17-119.45,9.05-142.15,57.31a2.27,2.27,0,0,0,3.54,2.74c18.65-17.72,37.38-33.55,61.67-43s50.18-10.49,75.81-8.71C515.91,148.88,516.32,141.69,512,140.2Z"/><path class="cls-13" d="M641.67,199.17c-1.91-.82-3.94.89-2.9,2.9,3.94,7.66,9.89,14.12,14.07,21.7,5.08,9.23,8.18,19.27,12,29,1.71,4.42,9,4.2,8.78-1.19C672.82,232.67,659.88,207,641.67,199.17Z"/><path class="cls-14" d="M570.49,263.77S510.71,324,447.78,333.27c-47.74,7-97.28,62.08-100.55,138.14,1.78,5,3.77,9.79,5.88,14.53C351,441.71,374.5,396.87,412.53,374c34.2-20.56,76.73-23.62,110.91-44.22,13.88-8.36,25.94-19.36,37.89-30.29,25.15,19.84,39.94,50,50.33,80.28s17.26,61.91,30.74,91c.39.84.79,1.68,1.19,2.52q2.74-7.39,5-15.1C643,351.17,570.49,263.77,570.49,263.77Z"/><path class="cls-12" d="M467.63,377.75c-1.95-13.76-20-17.15-31.44-16.13s-25.33,7.8-29.13,19.46c-.85,2.62,1.95,5.53,4.61,4.61,8.35-2.92,15.33-6.25,24.51-5,8.52,1.15,15.09,7.34,23.79,7.12C465.62,387.66,468.35,382.87,467.63,377.75Z"/><path class="cls-12" d="M440.27,399.36a11.07,11.07,0,0,0-5.11-.85c-23.75,1.45-11.9,51.9,8.61,36.48C453.7,427.53,451.84,404.33,440.27,399.36Z"/><path class="cls-10" d="M434.38,405.47a5.45,5.45,0,0,0-7.4,1.94l-.21.39a5.5,5.5,0,0,0,2,7.42c2.36,1.38,6.18.74,7.42-2l.18-.4C437.55,410.19,437.11,407.07,434.38,405.47Z"/><path class="cls-12" d="M527.37,377.75c2-13.76,20-17.15,31.44-16.13s25.32,7.8,29.12,19.46c.85,2.62-1.95,5.53-4.6,4.61-8.35-2.92-15.33-6.25-24.52-5-8.52,1.15-15.08,7.34-23.79,7.12C529.38,387.66,526.64,382.87,527.37,377.75Z"/><path class="cls-12" d="M560.61,399.36a11,11,0,0,0-5.1-.85c-23.75,1.45-11.91,51.9,8.6,36.48C574,427.53,572.19,404.33,560.61,399.36Z"/><path class="cls-10" d="M554.72,405.47a5.44,5.44,0,0,0-7.39,1.94l-.21.39a5.5,5.5,0,0,0,1.94,7.42c2.36,1.38,6.19.74,7.42-2,.06-.13.12-.27.19-.4C557.89,410.19,557.45,407.07,554.72,405.47Z"/><path class="cls-15" d="M498,453.17c-1.92-.25-3.05,2.67-1.6,3.86,3.4,2.77,6.66,4.81,8,9.27,1.44,4.92-3.19,7.64-6.92,9.21-2.53,1.06-4.11,5.16-.87,6.65,7.84,3.63,15.6-4,15.85-11.86C512.68,462.14,506.16,454.23,498,453.17Z"/><path class="cls-16" d="M467.24,509.44c5.13-6.05,62.53-6.49,67.84,1.18s-10,32.45-34.21,32.45S460.75,517.11,467.24,509.44Z"/><path class="cls-17" d="M535.08,510.62c-5.31-7.67-62.71-7.23-67.84-1.18-3.27,3.87-.84,12.36,5.45,19.85,8.5-9.56,22.36-14,35.28-12.79a63.25,63.25,0,0,1,24.82,8.06C536.12,519,537.11,513.55,535.08,510.62Z"/><ellipse class="cls-18" cx="585.23" cy="456.35" rx="22.42" ry="15.34"/><ellipse class="cls-18" cx="404.71" cy="456.35" rx="22.42" ry="15.34"/><path class="cls-14" d="M551.52,614.54l10.14-9.1c-3.34-7.53-7.24-16.93-10.79-27.12-.15-.42-.29-.85-.43-1.27a137.4,137.4,0,0,1-116.08-3.11h0c5.2,6.91,12.52,12.18,20.2,16.3,13.36,7.18,28,11.51,42.74,15.24C515,610,533.31,613.6,551.52,614.54Z"/><path class="cls-14" d="M486.81,695.81h16.88l1.69-10.41q-12.67-16.87-26.22-33.09Z"/><path class="cls-19" d="M561.66,605.44,511,651s4.15,4.37,10.2,10.67a321.77,321.77,0,0,0,51.7-66.25Z"/><path class="cls-19" d="M416.48,594.89a452.7,452.7,0,0,0,45.38,59.25c2.27,2.5,4.59,5,7,7.31,6-6.2,10-10.49,10-10.49L428.9,606Z"/><path class="cls-20" d="M294.25,659.32q51.81-21.44,105.27-38.59c0-.46,0-.92.06-1.37-28.11,3.59-89.31,12.21-96.19,20.07C302,641,298.77,648.16,294.25,659.32Z"/><path class="cls-20" d="M696.75,640.71c-12.34-6.17-80.78-20.59-107.34-26,.1.32.17.64.25,1q38.07,16.73,77,31.27c13.15,4.9,26.43,9.6,39.91,13.52C702.52,649.06,699.09,641.88,696.75,640.71Z"/><path class="cls-11" d="M566.94,82.6c-12-7.5-26.84-5.79-40.17-3.51-10.18,1.74-29.71,7.58-32.56,18.91a1.5,1.5,0,0,0,1,1.81c8.45,2.38,19.17-3.49,27.67-5.13,13.82-2.65,27.39.6,41.08-1.18C569.52,92.78,572.28,85.94,566.94,82.6Z"/><path class="cls-11" d="M608.86,102.85c-1.78-5.69-7.46-7.45-12.51-9.46-4-1.58-9.5-4.28-13.58-2a2.48,2.48,0,0,0-1.26,2.19c.48,4.67,5.39,7.5,8.93,10,4.29,3.06,9.45,7,15,5.35A5,5,0,0,0,608.86,102.85Z"/><path class="cls-21" d="M548.22,935.23c-87.7,45.28-190.78,59.84-287.67,41.29l.29,3.38a31.19,31.19,0,0,0,30.37,28.52l.72,0H682.58a30.75,30.75,0,0,0,5.2-.46,31.18,31.18,0,0,0,25.89-28.09l.23-2.73L732.79,755.6C690.46,831.68,625.62,895.26,548.22,935.23Z"/><path class="cls-21" d="M469.47,844.14c-7.15.09-11,6-12.76,12.26-1.5,5.16-1.53,13.93,4,16.8,1.42.74,3.58.78,4.69-.61,2.34-2.92,2.69-6.8,3.82-10.3,1.32-4.08,4.88-6.7,5.59-11.15C475.36,847.68,473.37,844.09,469.47,844.14Z"/><path class="cls-21" d="M497.91,837.19c-2.45-3.61-6.78-3.77-10.69-2.72-3.06.83-7,2.49-8.3,5.6-.63,1.49-.3,3.79,1.68,4.13,2.4.4,4.67-.26,7.06-.33,2.92-.1,6.23.84,8.78-1.07C498.13,841.54,499.27,839.19,497.91,837.19Z"/><path class="cls-22" d="M680.1,369.12a24,24,0,0,1,1.9,4.47,67,67,0,0,1,9.39,1.18c.32-37.25-10.54-177-191.56-177-181.4,0-194.15,140.32-194.37,177.22a68.3,68.3,0,0,1,10.48-1.4,24,24,0,0,1,1.9-4.47c2.52-4.25,5.29-7.09,8.13-8.71,8.31-39.73,41.95-133.23,174.59-133.23,128.9,0,161.29,90,169.4,132.29C673.5,360.75,677,363.88,680.1,369.12Z"/><path class="cls-23" d="M315.94,373.59a68.3,68.3,0,0,0-10.48,1.4c-16.16,3.45-41.33,14.94-41.33,53.14,0,43.32,34.31,50.66,50.11,51.75C307.51,462.74,308.7,395.55,315.94,373.59Z"/><path class="cls-24" d="M317.84,369.12a24,24,0,0,0-1.9,4.47c-7.24,22-8.43,89.15-1.7,106.29a10.65,10.65,0,0,0,1.54,2.85c9.07,11,28,13.24,31.73-1.1s7.83-89.35.82-107c-5.2-13.12-14.1-18.91-22.36-14.22C323.13,362,320.36,364.87,317.84,369.12Z"/><path class="cls-22" d="M657.44,490.37c-14.25,30.34-53.36,46-76.66,52.93a15.64,15.64,0,0,1,.67,2,18.47,18.47,0,0,1-.5,11.78c53.16-8.63,78.84-45.31,89.43-66.46C665.86,492.05,661.19,492.09,657.44,490.37Z"/><path class="cls-23" d="M733.81,428.13c0-39.07-26.33-50.2-42.42-53.36a67,67,0,0,0-9.39-1.18c7.24,22,8.44,89.15,1.7,106.29C699.5,478.79,733.81,471.45,733.81,428.13Z"/><path class="cls-24" d="M682,373.59a24,24,0,0,0-1.9-4.47c-3.11-5.24-6.6-8.37-10.14-9.65-7.66-2.77-15.57,3.1-20.35,15.16-7,17.65-2.89,92.66.82,107a12.62,12.62,0,0,0,7,8.74c3.75,1.72,8.42,1.68,12.94.25a25.31,25.31,0,0,0,11.78-7.89,10.65,10.65,0,0,0,1.54-2.85C690.44,462.74,689.24,395.55,682,373.59Z"/><path class="cls-24" d="M581.45,545.3a15.64,15.64,0,0,0-.67-2c-7.62-18.48-48.8-12.26-55.85-2.8-7.3,9.78-8.47,21.18,2.49,29.79,9.21,7.25,46.33,4.66,53.53-13.21A18.47,18.47,0,0,0,581.45,545.3Z"/><path class="cls-25" d="M345.87,485.51c-24.52-31.45-35.36-73.12-29.7-112.56l-.23.64c-7.24,22-8.43,89.15-1.7,106.29a10.65,10.65,0,0,0,1.54,2.85C323.91,492.63,340,495.38,345.87,485.51Z"/><path class="cls-25" d="M680.1,369.12A32.74,32.74,0,0,0,678,366c1.28,25,1.62,50.32-3.53,74.82-3.57,16.95-10,33.61-19.78,47.82a12.17,12.17,0,0,0,2.75,1.74c3.75,1.72,8.42,1.68,12.94.25a25.31,25.31,0,0,0,11.78-7.89,10.65,10.65,0,0,0,1.54-2.85c6.74-17.14,5.54-84.33-1.7-106.29A24,24,0,0,0,680.1,369.12Z"/><path class="cls-26" d="M705.23,442.94c-5.12,3.93-11.22,7.6-17.44,8.09-.58,12.67-1.92,23.35-4.09,28.85,15.8-1.09,50.11-8.43,50.11-51.75a73.41,73.41,0,0,0-1.18-13.47A136.81,136.81,0,0,1,705.23,442.94Z"/><path class="cls-26" d="M266.3,410.32a69.35,69.35,0,0,0-2.17,17.81c0,43.32,34.31,50.66,50.11,51.75C311.9,473.94,310.52,462,310,448a72.61,72.61,0,0,1-43.72-37.65Z"/><path class="cls-25" d="M556.57,558.42a54.54,54.54,0,0,1-37.23-3.23c0,5.37,2.37,10.61,8.08,15.1,9.21,7.25,46.33,4.66,53.53-13.21a18.47,18.47,0,0,0,.5-11.78,14.47,14.47,0,0,0-.5-1.49A54.33,54.33,0,0,1,556.57,558.42Z"/><path class="cls-27" d="M654.72,495.48a102.27,102.27,0,0,0,6.38,10.84,134.32,134.32,0,0,0,9.28-15.7c-4.52,1.43-9.19,1.47-12.94-.25Q656.2,493,654.72,495.48Z"/><path class="cls-27" d="M601.26,552.06A154.71,154.71,0,0,0,588.07,541c-2.55.86-5,1.62-7.29,2.3a15.64,15.64,0,0,1,.67,2,18.47,18.47,0,0,1-.5,11.78A126.72,126.72,0,0,0,601.26,552.06Z"/><path class="cls-27" d="M670,359.47c3.54,1.28,7,4.41,10.14,9.65a24,24,0,0,1,1.9,4.47,67,67,0,0,1,9.39,1.18,208.32,208.32,0,0,0-4-41.79q-10.3,7.2-19.89,15.37C668.48,352.32,669.3,356.05,670,359.47Z"/><path class="cls-27" d="M308.9,339.23A209.05,209.05,0,0,0,305.46,375a68.3,68.3,0,0,1,10.48-1.4,24,24,0,0,1,1.9-4.47c2.52-4.25,5.29-7.09,8.13-8.71.48-2.25,1-4.68,1.68-7.24Z"/><path class="cls-28" d="M973.79,108.88H783.44a45,45,0,0,0-44.83,44.84V327.55a45,45,0,0,0,44.83,44.83h7.24l-18.19,29c-6,9.51,4.39,20.83,14.39,15.73l78.82-40.21a10.93,10.93,0,0,0,4.7-4.51H973.79a45,45,0,0,0,44.84-44.83V153.72A45,45,0,0,0,973.79,108.88Z"/><path class="cls-9" d="M984.24,163.5H816.75a3.92,3.92,0,0,1-3.91-3.91h0a3.92,3.92,0,0,1,3.91-3.91H984.24a3.92,3.92,0,0,1,3.91,3.91h0A3.92,3.92,0,0,1,984.24,163.5Z"/><path class="cls-9" d="M984.24,206.38H775a3.92,3.92,0,0,1-3.91-3.91h0a3.92,3.92,0,0,1,3.91-3.91H984.24a3.92,3.92,0,0,1,3.91,3.91h0A3.92,3.92,0,0,1,984.24,206.38Z"/><path class="cls-9" d="M984.24,249.26H775a3.92,3.92,0,0,1-3.91-3.91h0a3.92,3.92,0,0,1,3.91-3.91H984.24a3.92,3.92,0,0,1,3.91,3.91h0A3.92,3.92,0,0,1,984.24,249.26Z"/><path class="cls-9" d="M984.24,292.13H775a3.91,3.91,0,0,1-3.91-3.9h0a3.92,3.92,0,0,1,3.91-3.91H984.24a3.92,3.92,0,0,1,3.91,3.91h0A3.91,3.91,0,0,1,984.24,292.13Z"/><path class="cls-9" d="M984.24,335H775a3.92,3.92,0,0,1-3.91-3.9h0A3.92,3.92,0,0,1,775,327.2H984.24a3.92,3.92,0,0,1,3.91,3.91h0A3.92,3.92,0,0,1,984.24,335Z"/></svg>