<svg id="Layer_1" data-name="Layer 1" xmlns="http://www.w3.org/2000/svg" viewBox="0 0 1080 1080"><defs><style>.cls-1{fill:#ffb522;}.cls-2{fill:#ffc764;}.cls-3{fill:#383838;}.cls-4{fill:#2b2b2b;}.cls-5{fill:#3f3f3f;}</style></defs><circle class="cls-1" cx="552.4" cy="695.66" r="243.98"/><path class="cls-2" d="M681.51,488.61,355.34,839.53q3.6,4.94,7.46,9.68L691.7,495.34Q686.69,491.86,681.51,488.61Z"/><path class="cls-2" d="M453.35,918.69,767.59,580.6q-5.43-10.11-11.75-19.65l-323,347.46Q442.84,914,453.35,918.69Z"/><path class="cls-2" d="M706.46,506.47,375,863.12a245.5,245.5,0,0,0,37.87,32.69l329-353.94A246.43,246.43,0,0,0,706.46,506.47Z"/><path d="M769.59,576.67c.32.46.6.85.84,1.18C770.16,577.46,769.87,577.07,769.59,576.67Z"/><path d="M333.26,579.46l.14-.33C333.13,579.52,333,579.78,333.26,579.46Z"/><path d="M770.94,578.44l-.5-.57c.51.71.85,1.16,1.06,1.43,0-.09-.07-.18-.1-.27S771.09,578.63,770.94,578.44Z"/><path d="M771.46,579.11l.12.29C771.91,579.81,771.76,579.53,771.46,579.11Z"/><path d="M800.13,615.91q-3.63-11.17-8.24-22a15.49,15.49,0,0,1-5.73,1.36c-7.7.35-14.13-6.77-14.19-14.19v-.2c-.08-.3-.16-.59-.25-.88-.32-.6-.67-1.19-1-1.76l-.24-.34-.07-.08a39.13,39.13,0,0,0-3.21-3.23c-.49-.44-1-.87-1.51-1.29a99.29,99.29,0,0,0-18.84-10.38c-4.18-1.71-8.41-3.26-12.68-4.69A226.4,226.4,0,0,1,778.25,665a246.4,246.4,0,0,1,0,61.24,226.81,226.81,0,0,1-45.42,108.58,228.7,228.7,0,0,1-91.89,70.84A244.91,244.91,0,0,1,583,921.51a249,249,0,0,1-61.24,0A226.81,226.81,0,0,1,413.2,876.09a228.7,228.7,0,0,1-70.84-91.89,245.44,245.44,0,0,1-15.81-57.91,249.06,249.06,0,0,1,0-61.25A226.31,226.31,0,0,1,370.7,558.17q-6.37,2.16-12.61,4.7a99.7,99.7,0,0,0-18.88,10.4c-.51.42-1,.85-1.51,1.29a44.33,44.33,0,0,0-3.21,3.22l-.35.51c-.36.54-.69,1.11-1,1.68-.09.29-.17.59-.24.88a1.41,1.41,0,0,0,0,.2c-.06,8-6.46,13.85-14.19,14.19a12.26,12.26,0,0,1-5.76-1.17q-1,2.34-2,4.71a257.36,257.36,0,0,0-18,77.75,260.66,260.66,0,0,0,6.72,81.18A260.47,260.47,0,0,0,443.9,932.13a251,251,0,0,0,80,22.07A260.19,260.19,0,0,0,785,812.34a256.62,256.62,0,0,0,24.21-75.17,277.44,277.44,0,0,0,3.39-41.51A260.39,260.39,0,0,0,800.13,615.91Z"/><path d="M334.49,577.78l.78-1.11c-.27.4-.56.79-.84,1.19l.06-.07Z"/><path d="M334.43,577.86l-.5.58c-.16.19-.33.41-.47.6s-.07.2-.11.31c.16-.21.41-.54.79-1.06l0-.08Z"/><path d="M641.89,739a83.8,83.8,0,0,0-8.08-16.63,93.77,93.77,0,0,0-11.76-14.66,104.67,104.67,0,0,0-14.78-12.11,88.24,88.24,0,0,0-13.62-7.7,122.68,122.68,0,0,0-19.34-7.16,130.48,130.48,0,0,0-21-3.51c-2.1-.2-4.2-.34-6.29-.54a90.89,90.89,0,0,1-18-4.92,84.14,84.14,0,0,1-14.26-8.29,74.76,74.76,0,0,1-9.9-9.83,66.63,66.63,0,0,1-6.13-10.4,60.25,60.25,0,0,1-2.88-10.46,59.39,59.39,0,0,1,0-10.5,58.69,58.69,0,0,1,2.8-10.17,63.29,63.29,0,0,1,5.72-9.73,71.73,71.73,0,0,1,9.21-9.15A80.55,80.55,0,0,1,527,585.42a88.49,88.49,0,0,1,17.59-4.76,85.47,85.47,0,0,1,17.15-.17,89.36,89.36,0,0,1,17.75,5.11,119.32,119.32,0,0,1,22,12.78q2.6,2.1,5,4.39a19,19,0,0,0,12.9,5.35c4.47,0,9.82-2,12.9-5.35s5.56-8,5.34-12.9-1.79-9.53-5.34-12.9a124.49,124.49,0,0,0-30.41-21,119.65,119.65,0,0,0-31-10.72v-9.85q-18.24-.36-36.49,0v10.17a90.55,90.55,0,0,0-9.76,2.2,97.32,97.32,0,0,0-44,26.44,87.59,87.59,0,0,0-10.78,14.34,79.21,79.21,0,0,0-10.54,34.24,78.13,78.13,0,0,0,1.1,18.25,59,59,0,0,0,3.57,13,86.06,86.06,0,0,0,8,16.06,94.16,94.16,0,0,0,11.44,14.13A102.71,102.71,0,0,0,497.83,696a82.9,82.9,0,0,0,12.88,7.28,114.6,114.6,0,0,0,18.44,6.81,120.52,120.52,0,0,0,20.16,3.27c1.92.16,3.84.31,5.75.5a98.41,98.41,0,0,1,20.09,5.47,87.55,87.55,0,0,1,15.29,8.86,77.18,77.18,0,0,1,10.15,10.06,65.54,65.54,0,0,1,6,10.25,60,60,0,0,1,2.81,10.18,39.11,39.11,0,0,1-2.81,20.5,63.29,63.29,0,0,1-5.72,9.73,71.73,71.73,0,0,1-9.21,9.15,79.81,79.81,0,0,1-13.45,7.8,87.32,87.32,0,0,1-17.47,4.74,94.16,94.16,0,0,1-20,0,109,109,0,0,1-22.85-6.29,95.6,95.6,0,0,1-17-9.76,65.66,65.66,0,0,1-8.39-8.2,20.47,20.47,0,0,0-10.83-8.26c-4.36-1.2-10.18-.66-14.06,1.84s-7.32,6.25-8.38,10.9-1,10.11,1.84,14.06a78.77,78.77,0,0,0,13.33,14.9A109.88,109.88,0,0,0,492,832a122,122,0,0,0,38.26,13.6c1.39.24,2.79.46,4.19.66v18a18.85,18.85,0,0,0,5.34,12.9c3.17,3.16,8.36,5.55,12.9,5.34,4.72-.21,9.62-1.76,12.91-5.34a19,19,0,0,0,5.34-12.9V845.78l2-.37a85.1,85.1,0,0,0,15.57-4.51A105.49,105.49,0,0,0,606,832.38a92.06,92.06,0,0,0,27.21-26.15,81.48,81.48,0,0,0,8.29-16.47c2.32-5.9,3.32-11.93,4.13-18.2a58,58,0,0,0,.11-14.6C645,750.79,644.07,744.82,641.89,739Z"/><path class="cls-3" d="M551.18,327.16c-129.08,0-233.73,38.3-233.73,85.54V560.35c0-33.15,104.65-60,233.73-60s233.74,26.87,233.74,60h0V412.7C784.92,365.46,680.27,327.16,551.18,327.16Z"/><path class="cls-4" d="M317.45,412.7c0-47.24,104.65-85.54,233.73-85.54s233.74,38.3,233.74,85.54v36.74l209.88-108L552.8,119.6l-442,221.87L317.45,447.78Z"/><path class="cls-5" d="M555.08,500.34c23.35.09,45.86,1.07,67.06,2.8v-172a613.2,613.2,0,0,0-67.06-4Z"/><path class="cls-5" d="M653.34,506.35q15.42,1.92,29.5,4.4V342q-14.05-3.51-29.5-6.27Z"/><path class="cls-3" d="M684.19,185.55l-129,141.62a616.31,616.31,0,0,1,66.95,4h0l117-118.06Z"/><path class="cls-3" d="M763.54,225.39,653.41,335.75c10.25,1.83,20.08,3.93,29.43,6.26h0l105-104.42Z"/><path d="M1002,329.22,957.5,306.9,851.66,253.77,723.54,189.46,613.22,134.08c-17.55-8.81-35-17.89-52.66-26.43-8.52-4.12-14.25-.64-21.37,2.93l-27.4,13.76L411.67,174.59l-127.09,63.8-115.4,57.92-62.63,31.44-2.92,1.47c-9.32,4.68-9.18,19.78,0,24.5l23.17,11.92V572.2c0,2.94,0,5.88,0,8.82v.38a9,9,0,0,0,.18,1.8c-8.64,3.26-14.67,10.62-14.67,19.19,0,7,4,13.19,10.19,17h0L100.44,760.14h73L151.37,619.39h0c6.17-3.81,10.19-10,10.19-17,0-8.56-6-15.93-14.65-19.19a10.57,10.57,0,0,0,.16-1.8V376.06l26.31,13.54,111.25,57.23,18.63,9.59v46.34c0,18.89-.15,37.78,0,56.66,0,.31,0,.62,0,.93,0,7.42,6.53,14.53,14.19,14.19s14.13-6.24,14.19-14.19c0-.07,0-.14,0-.2.07-.3.16-.59.25-.88.31-.58.64-1.14,1-1.69-.37.52-.63.86-.79,1.06,0-.1.08-.2.11-.3s.31-.41.47-.6l.5-.58L334,556l-.78,1.12a37.52,37.52,0,0,1,3.21-3.22c.49-.45,1-.87,1.5-1.3a99.43,99.43,0,0,1,18.89-10.39c21.09-8.64,43.66-13.72,66-17.67q10.78-1.89,21.63-3.38a791.28,791.28,0,0,1,81.23-6.25c29.37-.82,58.81-.26,88.12,1.83Q636,518.28,658,521.14c24.75,3.42,49.53,8.07,73.31,15.85,4.8,1.57,9.55,3.28,14.23,5.19a99.62,99.62,0,0,1,18.85,10.38c.51.43,1,.86,1.5,1.3a39.26,39.26,0,0,1,3.22,3.23.46.46,0,0,0,.07.07c.07.12.16.23.23.35.38.57.72,1.16,1,1.75.09.3.17.59.25.89,0,.06,0,.13,0,.2,0,7.42,6.49,14.53,14.19,14.19s14.19-6.24,14.19-14.19V458.08L863.4,425l112.67-58L1002,353.72C1011.14,349,1011.29,333.9,1002,329.22ZM332,558.76c-.26.31-.13,0,.14-.33ZM768.34,556l.85,1.19Zm.86,1.21.49.57c.16.18.32.39.46.58l.1.27C770,558.33,769.71,557.88,769.2,557.17Zm1.13,1.53-.12-.29C770.51,558.83,770.67,559.11,770.33,558.7Zm.4-134.27v21.23h0v3.77h0v73.7a161.27,161.27,0,0,0-24.1-10.83c-15.7-5.77-32-9.8-48.4-13.07a652.59,652.59,0,0,0-65.58-9.36,868.69,868.69,0,0,0-146.23-1.41c-22.74,1.68-45.45,4.3-67.94,8.12a393.42,393.42,0,0,0-52.62,12.27c-11.65,3.69-23.51,8-34.22,14.11V412.7c0-.94.23-2,.23-3,.21-1,.45-1.89.73-2.82l.54-1.63.06-.19.21-.42a48.76,48.76,0,0,1,3.57-6c2.12-1.87,3.84-4.5,5.9-6.49l.2-.19c.45-.43.92-.85,1.38-1.27l.37-.33c.38-.35.77-.69,1.16-1,.83-.71,1.66-1.4,2.5-2.08l.14-.11.23-.17c3-2.15,6.05-4.23,9.22-6.15l.11-.06,2.28-1.36.39-.22c.76-.44,1.53-.87,2.3-1.3l.48-.26c.68-.38,1.37-.75,2.06-1.12l.44-.23,2.37-1.23.75-.37,1.6-.8,1.12-.54,1-.51,2.76-1.28.47-.22c1.19-.54,2.38-1.07,3.59-1.59l1.19-.49,1.07-.44,2.57-1,.46-.18c2.23-.86,4.47-1.7,6.73-2.5q7.06-2.52,14.26-4.69c10.6-3.21,21.36-5.9,32.19-8.18q4-.86,8-1.63l3.81-.71c7.29-1.34,14.6-2.5,21.94-3.53a625.33,625.33,0,0,1,158.31,0l4.73.68c3.62.55,7.76,1.2,11.05,1.77q9,1.53,17.85,3.4c10.63,2.24,21.19,4.87,31.59,8q3.68,1.11,7.3,2.29l.3.1,3.36,1.12.56.19c1.06.37,2.12.73,3.17,1.11l.87.31,1.71.62,1.41.53.77.28,3.09,1.19.48.19,2.48,1,1.48.61,2.41,1.07,1.51.68.89.4,2.55,1.21.38.18c.95.46,1.9.92,2.84,1.4,3.77,1.89,7.46,3.91,11.07,6.1,3,1.83,5.92,3.8,8.8,5.85l.83.61,1.25,1,.31.25,1.73,1.49.07.06,1.47,1.34,1.56,1.5c1.67,1.7,3.22,3.49,4.81,5.28,0,.07.11.14.16.22l.78,1.14.3.44.12.2c.21.31.4.63.6,1,.08.13.15.26.23.38l.29.5.19.33q.45.79.87,1.62l.31.63.06.12c.24.78.54,1.55.81,2.33.16.55.31,1.09.44,1.64.14.74.23,1.54.41,2.27,0,.47.05.94.06,1.42,0,2.17.06,4.34.08,6.51C770.77,420.76,770.73,422.61,770.73,424.43Zm-439-13.76c0-.07,0-.13,0-.2l.09-.39C331.77,410.28,331.74,410.48,331.7,410.67Zm438.93-.34s0,.05,0,.07,0,.1,0,.14A1.49,1.49,0,0,1,770.63,410.33Zm145.68-44.42-112.67,58-4.53,2.33v-11h0V413.8a51.44,51.44,0,0,0-8.28-28.13,73.46,73.46,0,0,0-6.27-8.28c-8.55-10.12-19.94-18-31.6-24.34a224.11,224.11,0,0,0-32.79-14.57c-7.13-2.59-14.37-4.9-21.67-7q-9.45-2.7-19-4.9c-46.78-10.93-95.54-14.66-143.52-13.46-14,.31-28,1-42,2.28l-.21,0-1.71.15c-35.5,3.13-71.1,9.38-104.57,21a254.87,254.87,0,0,0-33.42,14c-12.24,6.24-24.5,14-33.94,24.18-7.29,7.61-13.21,16.75-15.53,27a52.64,52.64,0,0,0-1,5.77c0,.24-.06.49-.08.73s0,.26,0,.39c-.13,1.32-.2,2.66-.22,4v.06h0c0,3.94,0,7.89,0,11.83l-48.39-24.89L143.62,342.42l-1.55-.8,19.85-10,105.59-53,127.72-64.11,110.4-55.41c15.72-7.89,31.87-15.27,47.42-23.56l36.55,18.35,105.58,53L822.91,271l110.4,55.42,30.22,15.17Z"/><path d="M469.26,974.16H615.08c6.72,0,13.46.13,20.19,0h.27c4.24,0,8.31-3.73,8.11-8.11a8.25,8.25,0,0,0-8.11-8.11H489.72c-6.72,0-13.46-.13-20.19,0h-.27c-4.24,0-8.31,3.73-8.11,8.11a8.25,8.25,0,0,0,8.11,8.11Z"/></svg>